<?xml version="1.0" standalone="no"?>
<!DOCTYPE svg PUBLIC "-//W3C//DTD SVG 20010904//EN"
 "http://www.w3.org/TR/2001/REC-SVG-20010904/DTD/svg10.dtd">
<svg version="1.0" xmlns="http://www.w3.org/2000/svg"
 width="3232.000000pt" height="3232.000000pt" viewBox="0 0 3232.000000 3232.000000"
 preserveAspectRatio="xMidYMid meet">
<metadata>
Created by potrace 1.14, written by Peter Selinger 2001-2017
</metadata>
<g transform="translate(0.000000,3232.000000) scale(0.100000,-0.100000)"
fill="#000000" stroke="none">
<path d="M11078 20635 c-2 -2 -19 -7 -38 -10 -57 -9 -95 -18 -125 -29 -133
-50 -270 -123 -325 -173 -14 -13 -31 -23 -38 -23 -7 0 -10 -4 -7 -10 3 -5 2
-10 -3 -10 -19 0 -192 -181 -205 -213 -3 -9 -11 -17 -17 -17 -5 0 -10 -7 -10
-15 0 -8 -3 -15 -8 -15 -4 0 -27 -33 -52 -72 -24 -40 -47 -75 -50 -78 -4 -3
-19 -35 -35 -72 -16 -38 -33 -68 -37 -68 -5 0 -8 -8 -8 -17 0 -10 -6 -30 -14
-45 -11 -21 -36 -85 -41 -108 -1 -3 -7 -17 -13 -33 -7 -15 -14 -38 -16 -50 -2
-12 -9 -34 -15 -49 -6 -16 -9 -28 -6 -28 2 0 -2 -18 -10 -40 -8 -22 -14 -43
-14 -45 0 -8 -13 -97 -18 -120 -2 -11 -6 -42 -9 -70 -2 -27 -7 -61 -9 -75 -5
-27 -6 -291 -1 -350 3 -46 17 -160 22 -185 3 -11 7 -36 10 -55 3 -19 12 -57
19 -85 8 -27 17 -61 20 -75 4 -14 9 -32 12 -40 3 -8 7 -21 9 -29 9 -43 96
-240 126 -283 11 -16 17 -28 14 -28 -7 0 73 -117 123 -180 152 -191 389 -347
587 -384 101 -20 274 -28 274 -13 0 5 4 5 10 2 12 -7 114 11 165 29 170 62
225 89 334 169 74 55 183 160 241 232 62 78 140 192 140 205 0 6 5 10 10 10 6
0 10 9 10 20 0 11 4 20 8 20 13 0 127 259 141 322 1 4 8 26 17 49 8 23 12 44
9 47 -3 3 -1 10 4 16 6 6 12 25 15 41 2 17 5 30 6 30 1 0 3 9 5 20 2 11 7 36
11 55 7 37 12 74 19 130 2 19 5 35 5 35 9 0 14 383 6 440 -2 17 -7 50 -10 75
-3 25 -9 56 -12 70 -3 14 -7 35 -10 48 -2 12 -6 32 -8 45 -10 48 -15 67 -37
138 -13 41 -23 76 -24 79 -1 3 -5 13 -9 22 -4 9 -8 22 -10 30 -7 47 -160 326
-211 385 -5 6 -23 28 -40 49 -55 67 -129 136 -210 196 -44 32 -86 63 -92 68
-7 6 -13 8 -13 5 0 -3 -19 5 -42 18 -35 19 -95 44 -128 52 -3 1 -12 5 -20 8
-42 18 -128 30 -241 33 -70 1 -129 1 -131 -1z"/>
<path d="M1256 20213 c-3 -3 -46 -7 -96 -9 -56 -2 -104 -10 -128 -21 -20 -9
-45 -16 -54 -16 -10 0 -18 -2 -18 -6 0 -3 -13 -6 -28 -7 -25 -1 -200 -70 -212
-83 -9 -11 -50 -31 -62 -31 -17 0 -100 -55 -93 -62 3 -2 -7 -11 -22 -19 -47
-25 -191 -160 -243 -228 -14 -18 -30 -38 -36 -44 -5 -7 -19 -27 -29 -44 -11
-18 -23 -33 -27 -33 -4 0 -8 -6 -8 -12 0 -7 -18 -41 -40 -76 -22 -35 -42 -73
-44 -85 -3 -12 -5 -23 -7 -24 -1 -2 -2 -6 -4 -10 -1 -5 -5 -17 -9 -28 -17 -45
-26 -71 -31 -95 -2 -14 -14 -61 -25 -105 -20 -75 -21 -108 -21 -555 -1 -261 3
-500 7 -530 10 -69 9 -214 0 -260 -11 -48 -11 -1398 0 -1496 11 -111 11 -134
1 -179 -5 -22 -11 -593 -13 -1270 -2 -676 -5 -1295 -6 -1375 -2 -80 0 -170 4
-200 4 -30 10 -79 13 -108 3 -30 15 -76 25 -103 11 -27 20 -59 20 -71 0 -56
165 -372 226 -432 8 -9 13 -16 10 -16 -17 0 134 -152 229 -229 82 -68 179
-131 200 -131 8 0 15 -4 15 -8 0 -11 150 -72 225 -92 6 -1 15 -4 20 -5 6 -2
37 -11 70 -21 56 -17 125 -18 980 -20 891 -2 1140 -6 1152 -17 3 -3 15 -2 28
3 13 5 25 6 28 4 3 -3 155 -7 339 -10 430 -6 478 -7 478 -17 0 -4 8 -4 18 1 9
4 28 7 42 5 14 -2 30 -4 35 -4 25 -1 232 12 245 16 8 2 35 7 60 10 43 6 69 10
135 21 17 3 48 10 70 16 22 6 49 12 60 13 33 5 50 10 55 17 3 3 19 8 35 11 17
2 37 6 45 9 8 3 51 16 95 28 44 12 86 28 94 34 8 6 16 10 17 9 17 -11 378 175
441 227 7 6 17 10 23 10 5 0 10 5 10 10 0 6 7 10 15 10 8 0 15 5 15 10 0 6 7
10 15 10 8 0 15 4 15 8 0 5 12 15 28 23 15 8 29 16 32 19 13 14 80 60 80 56 0
-9 186 188 261 277 13 15 36 41 50 57 14 16 43 55 65 87 21 32 41 60 44 63 3
3 10 14 17 25 7 11 33 54 59 95 85 136 134 229 134 253 0 8 3 17 8 21 4 4 7
11 8 14 1 9 11 34 45 109 15 34 25 64 21 67 -3 3 -1 6 4 6 5 0 11 8 12 18 3
37 9 58 20 78 6 11 14 47 17 79 4 32 11 68 16 81 4 13 6 24 3 24 -4 0 -2 6 4
13 5 6 12 62 15 122 4 61 12 128 20 150 23 67 13 388 -17 575 -7 37 -9 51 -19
90 -6 22 -10 49 -21 125 -9 55 -143 375 -158 375 -4 0 -8 8 -8 18 0 10 -4 22
-9 28 -5 5 -22 34 -39 64 -16 30 -39 71 -51 90 -11 19 -28 50 -38 68 -9 17
-20 32 -25 32 -4 0 -8 5 -8 11 0 21 -60 90 -225 258 -38 39 -75 71 -82 71 -7
0 -13 3 -13 8 0 4 -74 63 -164 130 -162 122 -174 135 -181 194 -1 10 7 26 18
35 71 64 228 375 244 483 3 19 9 43 14 52 5 10 14 39 19 65 12 54 18 78 20 78
1 0 3 7 5 15 3 8 16 58 30 110 13 52 27 131 30 175 3 44 7 98 10 120 8 64 9
236 1 288 -4 26 -9 89 -11 140 -1 51 -8 108 -14 127 -12 35 -16 62 -25 135 -7
58 -11 70 -51 180 -20 55 -37 105 -39 110 -17 60 -42 137 -54 165 -36 85 -74
159 -88 170 -8 7 -14 17 -14 23 0 11 -46 75 -92 130 -15 18 -28 38 -28 45 0 6
-4 12 -10 12 -5 0 -10 5 -10 11 0 6 -21 36 -46 67 -53 67 -56 71 -111 142 -74
97 -316 310 -352 310 -5 0 -11 4 -13 9 -5 13 -218 151 -233 151 -7 0 -15 3
-17 8 -3 7 -34 24 -188 101 -100 51 -152 74 -159 71 -2 -1 -7 2 -10 7 -7 10
-174 79 -211 86 -43 10 -115 31 -120 37 -3 3 -9 6 -15 6 -43 5 -208 49 -240
64 -22 10 -69 21 -105 25 -83 8 -125 13 -175 21 -22 4 -188 8 -370 9 -181 1
-361 6 -400 10 -38 4 -236 9 -440 11 -375 3 -491 7 -500 15 -2 3 -32 2 -65 -1
-33 -3 -62 -4 -64 -2 -2 2 -64 5 -137 8 -74 2 -157 6 -186 8 -29 2 -54 1 -57
-1z m1784 -2277 c74 -3 149 -7 165 -10 150 -23 286 -140 310 -266 9 -48 9 -49
1 -100 -14 -104 -40 -162 -81 -184 -29 -16 -52 -34 -115 -90 -14 -12 -34 -26
-45 -30 -21 -9 -30 -11 -80 -20 -16 -3 -160 -5 -319 -6 -322 -1 -310 -3 -331
67 -7 25 -11 140 -9 323 1 157 2 288 3 292 0 4 8 14 17 23 18 17 11 17 484 1z
m-2 -2860 c6 -3 13 -2 17 4 4 6 10 8 15 5 14 -9 99 -17 215 -20 61 -2 110 -4
110 -5 0 -1 79 -3 175 -6 223 -5 257 -9 299 -30 45 -22 141 -122 165 -171 10
-21 22 -46 27 -56 6 -10 7 -22 4 -27 -4 -6 -2 -10 3 -10 9 0 8 -69 -2 -132 -8
-51 -36 -118 -49 -118 -6 0 -8 -3 -4 -6 13 -14 -137 -161 -195 -191 -42 -21
-47 -22 -463 -17 -666 7 -786 11 -805 32 -14 15 -16 60 -16 374 1 330 2 358
19 370 13 10 74 13 246 12 125 0 233 -4 239 -8z"/>
<path d="M19437 20183 c-1 0 -47 -4 -102 -7 -126 -8 -159 -13 -330 -51 -5 -1
-23 -7 -38 -13 -16 -7 -32 -12 -37 -12 -12 0 -103 -43 -110 -51 -3 -3 -21 -14
-40 -24 -96 -49 -280 -200 -280 -230 0 -8 -3 -15 -7 -17 -5 -1 -28 -32 -52
-68 -25 -36 -48 -66 -53 -68 -4 -2 -8 -10 -8 -17 0 -7 -16 -42 -36 -77 -20
-34 -37 -69 -37 -75 0 -7 -5 -13 -10 -13 -6 0 -8 -3 -4 -6 3 -3 -1 -25 -9 -47
-17 -48 -43 -140 -50 -177 -2 -14 -7 -36 -10 -50 -10 -43 -14 -63 -22 -115 -9
-65 -8 -6024 2 -6090 13 -92 49 -191 132 -372 14 -29 29 -53 34 -53 6 0 10 -4
10 -10 0 -11 62 -103 73 -108 4 -2 7 -8 7 -13 0 -11 67 -107 92 -132 10 -10
18 -21 18 -25 0 -4 17 -18 38 -32 20 -14 39 -27 42 -31 12 -13 130 -89 139
-89 6 0 11 -4 11 -10 0 -5 7 -10 15 -10 8 0 15 -4 15 -10 0 -5 4 -10 10 -10
18 0 90 -34 90 -43 0 -4 5 -5 10 -2 6 3 10 2 10 -3 0 -9 37 -25 53 -23 4 1 7
-4 7 -11 0 -6 3 -8 7 -5 3 4 11 3 17 -3 7 -5 27 -12 46 -15 19 -3 60 -12 90
-20 30 -8 66 -15 80 -17 14 -2 30 -6 35 -9 13 -7 191 -3 232 5 18 3 45 11 60
17 15 6 35 12 43 14 113 23 265 96 335 161 11 11 46 40 77 67 78 66 168 155
203 202 17 22 36 46 43 53 6 7 12 19 12 27 0 7 3 15 8 17 21 9 162 342 162
383 0 8 9 41 19 72 22 67 29 103 36 193 3 36 7 77 9 93 2 15 -1 30 -5 33 -5 3
-6 13 -1 22 9 21 9 53 -1 69 -4 6 -4 14 1 17 9 5 9 47 -1 63 -4 7 -4 14 1 17
9 5 9 47 -1 63 -4 7 -4 14 1 17 9 5 9 47 -1 63 -4 7 -4 14 1 17 9 5 9 47 -1
63 -4 7 -4 14 1 17 6 3 8 61 2 61 -1 0 -3 16 -5 35 -2 19 -6 49 -8 67 -3 18 1
43 8 56 6 12 9 32 5 42 -4 11 -4 32 1 47 4 14 5 29 2 32 -9 9 -13 113 -17 481
-3 320 -13 571 -22 586 -2 3 3 15 11 25 11 15 18 17 32 8 20 -12 74 -104 67
-115 -2 -4 0 -10 6 -14 5 -3 10 -15 10 -25 0 -10 3 -20 8 -22 4 -1 17 -23 30
-48 12 -25 32 -61 43 -80 12 -19 31 -53 42 -75 12 -22 25 -42 28 -45 4 -3 21
-36 39 -75 18 -38 69 -121 113 -183 43 -62 80 -119 81 -127 1 -8 8 -21 14 -27
7 -7 12 -16 12 -21 0 -7 55 -104 95 -168 5 -9 24 -41 42 -70 17 -30 36 -59 41
-65 5 -5 15 -21 22 -35 7 -13 16 -26 20 -29 4 -3 22 -35 40 -72 19 -38 37 -68
42 -68 4 0 8 -5 8 -11 0 -6 13 -29 29 -52 16 -23 38 -59 50 -80 11 -20 31 -54
42 -74 12 -21 30 -50 40 -65 11 -14 19 -29 19 -32 0 -4 5 -12 10 -19 19 -22
95 -140 120 -186 13 -25 27 -48 31 -51 3 -3 23 -36 44 -75 21 -38 55 -101 77
-138 21 -38 38 -73 38 -77 0 -5 3 -10 8 -12 9 -4 41 -57 49 -80 3 -10 9 -18
14 -18 5 0 9 -4 9 -9 0 -7 55 -97 179 -291 8 -14 16 -28 16 -32 1 -21 257
-288 277 -288 5 0 18 -8 29 -18 10 -11 32 -25 47 -33 15 -8 29 -16 32 -19 29
-31 284 -167 325 -174 17 -2 30 -5 30 -6 0 -7 187 -24 265 -24 60 0 146 11
195 25 68 19 208 79 250 107 38 26 45 31 79 60 8 6 18 12 21 12 17 0 181 137
258 215 44 45 97 118 97 134 0 6 3 11 8 11 4 0 23 34 42 75 19 41 38 75 42 75
4 0 8 6 8 13 0 6 6 24 14 38 25 49 61 172 92 314 10 46 11 284 2 335 -5 25
-10 59 -13 75 -2 17 -4 30 -5 30 -1 0 -4 18 -5 40 -5 60 -13 90 -49 189 -19
50 -40 108 -47 129 -7 20 -17 37 -23 37 -5 0 -6 3 -3 7 4 3 0 15 -10 25 -9 10
-13 18 -10 18 7 0 -21 43 -65 100 -15 19 -31 46 -37 60 -6 14 -46 79 -89 146
-43 66 -93 145 -110 176 -18 30 -56 81 -86 114 -30 32 -52 62 -50 66 3 4 1 8
-3 8 -5 0 -14 12 -20 28 -29 67 -97 177 -155 246 -38 45 -89 116 -83 116 3 0
1 6 -4 13 -43 51 -61 76 -61 81 0 4 -8 16 -18 27 -11 10 -25 32 -32 47 -29 62
-45 89 -71 119 -15 17 -26 38 -25 45 10 58 20 76 42 87 13 6 27 18 30 26 4 8
10 15 15 15 5 0 17 8 27 18 10 9 33 28 51 42 18 14 44 35 57 48 13 13 24 21
24 19 0 -2 51 46 113 107 112 109 168 174 217 248 14 21 28 38 32 38 4 0 23
27 43 60 20 33 42 66 48 73 20 21 76 123 81 147 1 3 18 37 37 75 30 58 64 150
75 201 1 6 16 42 33 81 17 39 31 78 31 87 0 9 4 16 8 16 5 0 9 6 10 13 0 6 3
22 5 33 3 12 8 37 11 55 3 19 7 43 10 54 6 32 23 140 29 190 2 17 7 44 11 60
17 78 20 133 19 305 -1 220 -8 342 -24 430 -12 71 -16 104 -23 165 -2 22 -11
64 -21 92 -9 29 -15 66 -13 83 3 16 1 30 -2 30 -4 0 -10 17 -13 38 -14 86 -21
115 -73 272 -30 91 -63 194 -75 230 -28 86 -54 141 -108 225 -25 39 -55 90
-68 115 -12 25 -53 84 -90 132 -37 47 -93 119 -123 159 -80 105 -177 206 -240
249 -30 21 -71 52 -90 70 -47 42 -76 65 -130 99 -80 50 -298 171 -309 171 -6
0 -26 9 -46 20 -19 11 -35 17 -35 15 0 -3 -13 1 -30 10 -16 8 -38 15 -50 15
-11 0 -20 5 -20 10 0 6 -7 10 -15 10 -8 0 -40 12 -72 26 -32 14 -67 27 -77 30
-11 2 -47 13 -80 24 -34 11 -72 22 -86 24 -14 3 -25 5 -25 6 0 3 -29 7 -85 13
-30 4 -77 13 -105 21 -88 26 -141 29 -700 31 -302 2 -580 7 -616 12 -46 6 -74
5 -95 -3 -16 -7 -32 -10 -36 -8 -16 10 -288 22 -293 13 -2 -3 -20 -5 -40 -4
-19 1 -38 -2 -41 -7 -3 -4 -11 -5 -17 -1 -27 17 -60 18 -152 8 -95 -11 -98
-11 -135 -1 -27 7 -506 16 -513 9z m1553 -2267 c135 -2 286 -7 335 -10 50 -4
121 -9 158 -11 53 -3 84 -11 143 -41 41 -20 92 -52 112 -70 20 -19 41 -34 45
-34 5 0 5 -4 2 -10 -3 -5 -2 -10 3 -10 13 0 71 -128 90 -200 10 -37 8 -232 -2
-255 -5 -11 -10 -27 -12 -35 -3 -18 -45 -100 -59 -116 -91 -103 -148 -147
-243 -189 -34 -14 -48 -16 -61 -8 -13 8 -164 11 -491 12 -260 0 -475 2 -478 6
-3 3 -7 20 -7 39 -1 18 -5 37 -8 44 -4 6 -4 13 1 16 9 5 9 47 -1 63 -4 7 -4
14 1 17 9 5 9 47 -1 63 -4 7 -4 14 1 17 9 5 9 47 -1 63 -4 7 -4 14 1 17 9 5 9
47 -1 63 -4 7 -4 14 1 17 9 5 9 47 -1 63 -4 7 -4 14 1 17 9 5 9 47 -1 63 -4 7
-4 14 1 17 9 5 9 47 -1 63 -4 7 -4 14 1 17 9 5 9 47 -1 63 -4 7 -4 14 1 17 9
5 9 47 -1 63 -4 7 -4 14 1 17 9 5 9 47 -1 63 -4 7 -4 14 0 16 5 3 8 20 7 39
-1 18 4 37 10 41 6 4 56 5 111 2 55 -3 210 -8 345 -9z"/>
<path d="M26530 20158 c-12 -5 -57 -11 -98 -13 -42 -3 -83 -7 -91 -9 -9 -3
-41 -7 -72 -11 -31 -3 -71 -10 -88 -15 -17 -5 -31 -6 -31 -3 0 3 -16 -4 -36
-16 -19 -12 -40 -21 -46 -21 -16 0 -152 -71 -156 -81 -2 -5 -7 -9 -12 -9 -11
0 -108 -63 -139 -90 -13 -12 -37 -28 -52 -36 -16 -8 -29 -19 -29 -24 0 -6 -4
-10 -10 -10 -5 0 -28 -18 -50 -40 -22 -22 -38 -40 -36 -40 2 0 -9 -14 -25 -31
-80 -86 -202 -291 -214 -361 -3 -18 -13 -40 -21 -49 -8 -9 -24 -49 -37 -90
l-22 -74 1 -1270 c1 -1325 4 -1605 17 -1605 5 0 5 -6 0 -12 -7 -12 -15 -256
-14 -438 0 -41 0 -138 -1 -215 0 -77 -1 -374 0 -660 0 -286 0 -585 0 -665 -2
-841 0 -1351 6 -1380 8 -36 64 -186 94 -250 9 -19 17 -37 17 -40 0 -3 11 -27
23 -54 12 -27 22 -52 22 -57 0 -5 5 -9 10 -9 6 0 10 -6 10 -14 0 -8 3 -16 8
-18 4 -2 29 -32 56 -68 53 -69 150 -169 205 -210 18 -14 45 -35 58 -47 14 -13
29 -23 34 -23 4 0 14 -6 21 -13 25 -25 223 -116 298 -137 41 -12 84 -25 95
-30 19 -8 36 -12 135 -27 103 -16 281 -7 400 20 105 24 344 116 361 140 3 5
13 9 22 11 8 1 27 11 42 21 123 89 154 114 185 146 19 20 40 43 45 50 6 8 31
41 56 74 56 73 154 235 171 281 6 19 15 34 19 34 4 0 8 8 7 18 0 9 14 55 31
100 17 46 33 108 36 138 4 30 8 65 11 77 6 31 5 693 -2 752 -3 28 -6 402 -8
833 -2 564 1 782 9 782 6 0 19 -10 30 -22 34 -40 115 -147 115 -153 0 -3 8
-14 18 -24 22 -25 32 -38 62 -80 14 -19 30 -42 37 -50 7 -9 26 -34 43 -56 16
-22 40 -53 53 -69 19 -25 169 -214 213 -269 8 -9 14 -19 14 -22 0 -6 41 -60
143 -187 42 -54 77 -102 77 -108 0 -5 4 -10 9 -10 4 0 21 -19 37 -42 16 -23
36 -49 44 -58 8 -9 26 -31 40 -50 46 -62 114 -145 150 -181 19 -19 44 -48 54
-63 11 -15 27 -36 35 -46 9 -11 27 -36 41 -55 14 -20 42 -58 63 -85 20 -27 37
-54 37 -60 0 -5 3 -10 8 -10 4 0 18 -17 32 -37 14 -20 30 -41 35 -47 6 -6 30
-38 55 -71 44 -58 75 -97 95 -119 6 -6 24 -29 40 -51 17 -22 38 -49 49 -60 10
-11 57 -72 104 -135 81 -109 109 -145 170 -216 15 -16 38 -45 52 -63 14 -19
32 -42 40 -51 8 -10 29 -35 45 -56 39 -49 174 -206 189 -219 6 -5 23 -28 38
-50 15 -22 50 -64 77 -94 28 -29 53 -62 57 -73 7 -22 54 -95 54 -84 0 4 6 2
13 -3 108 -87 198 -151 214 -151 6 0 13 -4 15 -8 8 -22 264 -127 358 -147 8
-2 17 -4 20 -5 3 -1 8 -2 12 -1 4 0 19 -6 35 -14 22 -12 58 -14 178 -10 139 5
230 11 230 15 0 2 9 4 55 13 14 3 70 19 125 36 55 18 107 33 115 35 53 14 140
56 140 68 0 5 5 8 11 8 12 0 120 72 163 109 66 57 206 204 201 211 -3 5 -1 10
4 12 16 6 139 252 161 323 12 39 23 78 25 88 2 10 7 27 10 37 43 135 42 572
-2 680 -3 8 -8 24 -10 35 -8 47 -38 125 -71 185 -40 75 -112 183 -124 188 -4
2 -8 9 -8 15 0 13 -137 147 -151 147 -5 0 -9 5 -9 12 0 6 -11 26 -26 45 -14
18 -22 33 -19 33 4 0 0 6 -7 14 -7 7 -38 42 -68 77 -30 35 -70 79 -88 98 -18
18 -36 39 -40 46 -4 7 -29 37 -57 67 -27 30 -71 78 -97 108 -26 30 -63 73 -83
95 -20 22 -53 59 -73 83 -36 41 -61 69 -148 163 -22 24 -60 73 -84 109 -24 36
-85 107 -134 158 -50 51 -92 97 -94 102 -2 4 -26 32 -53 62 -28 29 -78 87
-112 128 -33 41 -94 109 -135 151 -40 42 -81 87 -90 100 -9 13 -22 30 -29 37
-7 8 -26 30 -41 50 -15 21 -60 70 -99 110 -40 41 -73 77 -73 81 0 5 -29 37
-65 72 -35 35 -65 70 -65 77 0 6 -4 12 -10 12 -5 0 -10 7 -10 15 0 8 -4 15
-10 15 -17 0 -11 63 9 95 10 17 60 68 111 115 50 47 171 162 268 257 98 94
194 186 215 205 21 18 73 67 116 108 334 325 592 570 600 570 3 1 24 27 46 58
38 54 74 92 199 210 31 29 56 55 56 57 0 2 12 17 28 33 15 16 38 43 52 62 14
18 32 41 41 51 8 9 24 35 35 56 10 21 22 40 25 43 10 7 87 175 95 205 3 14 10
28 15 31 5 3 7 10 4 15 -4 5 -2 9 3 9 16 0 62 162 58 202 -2 21 -1 36 2 34 10
-6 8 236 -1 252 -5 7 -3 12 3 12 6 0 8 5 5 11 -4 5 -8 37 -10 69 -8 143 -97
390 -186 518 -34 48 -55 75 -141 175 -15 18 -30 39 -33 47 -4 8 -38 40 -78 70
-39 30 -98 77 -131 104 -34 26 -77 55 -96 63 -19 8 -48 21 -65 28 -38 16 -114
45 -118 44 -1 0 -15 4 -30 10 -16 6 -32 11 -36 11 -5 0 -37 9 -71 20 -35 11
-65 18 -68 15 -2 -2 -13 0 -24 6 -18 10 -270 15 -285 6 -5 -3 -30 -8 -58 -11
-100 -12 -119 -17 -187 -53 -16 -8 -28 -11 -28 -6 0 4 -4 3 -8 -2 -8 -12 -120
-68 -141 -72 -7 -1 -17 -5 -20 -10 -3 -4 -28 -19 -56 -33 -78 -39 -111 -66
-242 -199 -136 -138 -140 -142 -238 -261 -95 -116 -120 -144 -192 -217 -33
-35 -90 -96 -126 -136 -85 -95 -103 -114 -211 -231 -50 -54 -97 -107 -104
-117 -6 -9 -29 -35 -50 -56 -21 -21 -63 -72 -94 -113 -30 -41 -93 -113 -140
-160 -46 -47 -117 -130 -158 -185 -41 -55 -119 -145 -174 -200 -101 -100 -115
-116 -191 -209 -22 -28 -53 -64 -68 -80 -15 -17 -37 -45 -49 -63 -12 -17 -34
-38 -49 -47 -15 -9 -42 -35 -61 -59 -18 -23 -48 -55 -65 -72 -18 -16 -33 -35
-33 -42 0 -6 -3 -13 -8 -15 -4 -1 -23 -23 -42 -48 -19 -25 -59 -71 -89 -102
-44 -45 -58 -54 -69 -45 -11 9 -13 114 -11 605 2 326 7 596 11 598 4 3 4 14
-1 25 -4 12 -5 42 -1 67 7 61 5 382 -4 447 -3 28 -8 68 -11 90 -5 44 -37 164
-56 210 -7 17 -13 32 -13 35 -28 116 -181 350 -302 462 -60 55 -156 127 -171
128 -6 0 -13 4 -15 9 -1 5 -25 20 -53 35 -27 15 -68 39 -90 55 -37 26 -68 37
-170 62 -22 5 -47 12 -55 16 -8 3 -24 8 -35 10 -11 2 -48 10 -82 18 -34 9 -76
17 -93 18 -16 1 -30 5 -30 8 0 8 -23 7 -50 -3z"/>
<path d="M14445 19824 c-105 -15 -126 -20 -215 -50 -91 -29 -96 -31 -190 -79
-41 -21 -85 -43 -97 -49 -13 -6 -23 -14 -23 -18 0 -5 -4 -8 -10 -8 -41 0 -342
-258 -422 -361 -14 -19 -35 -44 -47 -56 -12 -12 -21 -25 -21 -27 0 -5 -21 -33
-45 -60 -6 -6 -22 -29 -35 -51 -13 -22 -26 -42 -29 -45 -4 -3 -12 -15 -18 -27
-7 -13 -19 -33 -25 -45 -7 -13 -15 -25 -18 -28 -3 -3 -18 -32 -35 -65 -16 -33
-33 -63 -38 -66 -5 -3 -9 -10 -9 -15 1 -5 -5 -22 -13 -39 -30 -70 -43 -104
-65 -165 -12 -36 -25 -72 -28 -80 -3 -8 -6 -19 -7 -25 -2 -5 -11 -39 -20 -75
-20 -77 -25 -97 -30 -130 -2 -14 -6 -39 -9 -56 -14 -78 -18 -128 -21 -254 -1
-74 2 -143 7 -152 5 -11 5 -18 -1 -18 -6 0 -6 -11 -1 -30 5 -17 9 -33 9 -35 1
-3 1 -6 2 -7 0 -2 2 -19 3 -38 5 -54 34 -167 63 -245 127 -342 370 -561 698
-631 62 -13 178 -19 275 -13 19 1 117 17 150 25 14 3 35 7 47 9 12 2 27 6 32
10 6 3 21 8 33 10 23 5 141 53 198 81 34 17 205 120 225 136 132 103 288 252
346 329 13 17 32 39 42 47 9 9 17 22 17 29 0 7 4 13 8 13 9 0 82 106 82 120 0
6 4 10 10 10 5 0 12 11 16 25 3 14 9 25 13 25 8 0 28 38 29 54 0 5 5 12 10 15
12 7 92 171 92 189 0 6 4 12 9 12 5 0 12 16 15 35 4 19 14 41 22 50 9 8 13 15
10 15 -3 0 2 21 10 48 36 112 55 179 60 212 3 19 7 43 10 52 8 26 14 60 19
106 3 23 8 63 11 90 8 69 8 246 -1 327 -9 82 -13 110 -15 110 -1 0 -3 9 -5 20
-23 159 -118 377 -220 504 -83 103 -171 177 -280 236 -64 35 -154 71 -200 81
-11 2 -43 9 -72 14 -75 16 -216 18 -308 4z"/>
<path d="M8466 18653 c-2 -2 -19 -6 -37 -8 -19 -2 -45 -7 -59 -10 -14 -3 -29
-7 -35 -9 -33 -8 -92 -30 -102 -39 -7 -5 -13 -7 -13 -4 0 3 -27 -10 -61 -29
-33 -18 -65 -34 -69 -34 -5 0 -13 -6 -17 -13 -4 -8 -21 -22 -38 -33 -16 -10
-56 -43 -88 -74 -32 -30 -63 -56 -68 -58 -5 -2 -9 -7 -9 -12 0 -5 -15 -26 -34
-47 -53 -59 -122 -168 -177 -282 -28 -57 -52 -109 -54 -115 -1 -6 -7 -24 -13
-39 -7 -16 -12 -34 -12 -41 0 -7 -3 -16 -7 -20 -5 -4 -8 -11 -9 -14 0 -4 -6
-25 -12 -47 -6 -22 -13 -51 -16 -65 -2 -14 -5 -25 -6 -25 -2 0 -10 -36 -14
-70 -3 -16 -7 -48 -11 -70 -26 -174 -26 -410 -1 -565 3 -14 7 -41 9 -60 8 -53
23 -116 52 -210 15 -47 28 -92 30 -100 22 -96 185 -383 263 -465 6 -8 12 -19
12 -26 0 -7 3 -10 6 -6 3 3 20 -11 37 -31 18 -20 36 -40 42 -44 5 -3 28 -23
50 -44 107 -98 289 -192 425 -218 14 -3 36 -8 50 -11 43 -10 256 -5 275 7 6 3
27 9 49 12 21 4 50 12 65 18 14 6 28 12 31 12 22 5 100 43 100 49 0 4 9 7 20
7 11 0 20 5 20 10 0 6 7 10 15 10 8 0 15 5 15 10 0 6 5 10 11 10 6 0 16 6 24
13 25 23 55 47 61 47 8 0 112 107 165 170 137 166 260 439 305 679 9 47 18 95
20 106 25 130 21 434 -7 595 -6 36 -13 74 -15 85 -5 31 -24 108 -30 125 -3 8
-5 16 -5 17 0 5 -50 148 -58 168 -126 292 -300 515 -500 640 -9 6 -18 13 -21
17 -3 4 -44 25 -91 47 -78 37 -154 62 -234 77 -35 7 -223 13 -229 7z"/>
<path d="M11887 17034 c-1 -2 -23 -5 -47 -7 -25 -3 -65 -10 -90 -17 -25 -7
-52 -14 -60 -15 -26 -6 -98 -33 -122 -47 -13 -7 -25 -13 -28 -13 -5 -1 -22
-10 -95 -53 -22 -12 -48 -25 -57 -29 -10 -3 -18 -8 -18 -12 0 -4 -17 -15 -37
-26 -21 -11 -44 -26 -53 -33 -8 -7 -49 -38 -90 -68 -79 -57 -153 -121 -236
-201 -63 -61 -139 -128 -194 -173 -24 -19 -50 -42 -59 -51 -9 -8 -50 -42 -91
-75 -41 -32 -77 -62 -80 -65 -3 -3 -39 -30 -80 -59 -41 -30 -77 -57 -80 -60
-3 -3 -41 -29 -85 -58 -44 -28 -90 -59 -102 -68 -12 -9 -35 -23 -51 -32 -16
-10 -80 -46 -142 -81 -114 -65 -370 -186 -406 -193 -10 -2 -25 -9 -32 -16 -8
-7 -18 -10 -23 -7 -5 4 -9 1 -9 -6 0 -7 -3 -10 -6 -7 -3 4 -45 -7 -92 -23 -48
-17 -141 -44 -207 -60 -242 -62 -399 -134 -560 -258 -90 -69 -260 -246 -274
-285 -2 -6 -7 -13 -11 -16 -9 -7 -70 -97 -70 -105 0 -3 -11 -23 -25 -45 -14
-22 -22 -40 -18 -40 5 0 3 -4 -3 -8 -9 -6 -26 -42 -66 -139 -11 -29 -13 -33
-22 -68 -3 -11 -14 -50 -25 -88 -11 -37 -22 -84 -26 -105 -3 -20 -7 -44 -10
-52 -13 -47 -20 -322 -11 -392 16 -110 49 -258 67 -290 5 -10 9 -23 9 -29 0
-16 106 -233 122 -250 7 -8 19 -26 27 -41 8 -15 23 -37 33 -48 10 -11 16 -20
13 -20 -15 0 186 -200 257 -256 69 -52 194 -134 208 -134 5 0 10 -4 10 -8 0
-4 15 -15 33 -23 61 -29 142 -74 145 -81 2 -5 11 -8 21 -8 9 0 21 -4 27 -8 7
-7 118 -54 134 -58 3 0 12 -3 20 -6 70 -26 170 -57 209 -64 7 -1 36 -8 65 -15
28 -7 56 -13 61 -14 6 0 29 -4 53 -9 23 -4 52 -9 65 -11 12 -1 38 -5 57 -9 19
-3 49 -8 65 -11 17 -3 57 -10 90 -16 33 -6 71 -13 85 -16 14 -2 34 -5 45 -8
11 -2 56 -11 100 -19 70 -13 284 -59 340 -72 11 -3 31 -7 45 -9 14 -2 52 -11
86 -19 34 -8 72 -17 85 -20 13 -3 40 -9 59 -14 19 -5 38 -9 43 -10 4 -1 8 -2
10 -3 4 -1 31 -8 53 -12 11 -3 51 -13 88 -22 37 -9 73 -18 81 -19 8 -1 18 -5
21 -9 4 -4 16 -7 27 -7 12 0 34 -4 51 -9 17 -6 56 -17 86 -25 30 -8 129 -36
220 -62 91 -25 170 -47 175 -49 43 -9 72 -19 84 -29 8 -6 17 -10 20 -8 8 4 93
-19 106 -29 6 -4 28 -11 50 -15 22 -4 56 -14 74 -22 19 -7 42 -15 50 -17 9 -2
70 -21 136 -43 66 -22 170 -56 230 -75 238 -76 379 -119 389 -121 6 -1 16 -4
21 -7 14 -9 128 -13 345 -13 198 -1 327 8 445 30 17 3 44 8 60 11 45 7 172 52
245 86 36 16 68 29 73 29 4 -1 7 3 7 8 0 6 5 10 11 10 6 0 29 13 52 29 23 16
44 28 47 27 5 -1 15 7 119 98 204 179 355 460 387 720 12 105 13 119 14 231 0
121 -7 204 -25 295 -3 14 -8 41 -11 60 -5 31 -46 170 -61 210 -4 8 -7 17 -8
20 -6 17 -28 69 -41 94 -8 16 -14 35 -14 42 0 7 -3 14 -7 16 -5 2 -19 23 -32
48 -50 95 -65 120 -73 120 -4 0 -8 5 -8 10 0 6 -44 70 -98 143 -54 72 -118
161 -142 197 -24 36 -46 67 -49 70 -3 3 -12 17 -20 33 -8 15 -18 27 -23 27 -4
0 -8 4 -8 10 0 5 -21 42 -47 82 -27 40 -53 82 -59 93 -18 34 -39 69 -47 79
-12 16 -52 84 -80 136 -13 25 -41 77 -62 115 -64 120 -105 202 -105 213 0 6
-3 12 -7 14 -11 4 -43 67 -43 84 0 8 -5 14 -10 14 -6 0 -9 4 -8 8 2 4 -8 33
-21 63 -37 83 -72 166 -76 179 -2 8 -26 62 -41 95 -13 30 -36 86 -39 95 0 3
-9 20 -18 38 -10 17 -15 32 -12 32 4 0 0 12 -8 28 -24 45 -52 110 -112 257
-63 154 -110 262 -125 285 -6 8 -15 26 -21 40 -46 107 -202 321 -334 454 -121
123 -313 222 -498 257 -56 10 -262 20 -270 13z"/>
<path d="M15773 16819 c-10 -3 -21 -5 -25 -3 -9 6 -183 -33 -238 -52 -173 -63
-327 -148 -460 -253 -25 -20 -51 -40 -58 -46 -21 -16 -195 -189 -218 -216 -32
-39 -98 -124 -111 -145 -7 -10 -29 -41 -48 -69 -19 -27 -35 -55 -35 -62 0 -6
-4 -13 -8 -15 -8 -3 -108 -183 -102 -183 2 0 -8 -22 -21 -50 -12 -27 -24 -52
-24 -55 -3 -12 -57 -186 -63 -200 -7 -19 -6 -18 -15 -60 -32 -157 -37 -207
-37 -360 0 -99 4 -155 10 -155 1 0 3 -18 5 -40 8 -108 86 -316 152 -402 13
-18 21 -33 18 -33 -4 0 14 -21 38 -47 25 -27 56 -59 69 -73 12 -14 34 -33 48
-42 14 -10 43 -30 65 -46 46 -32 142 -78 182 -88 16 -4 33 -9 38 -13 10 -6 21
-8 65 -15 14 -3 41 -7 60 -11 40 -8 185 -8 245 -1 22 3 54 7 71 9 48 6 229 59
232 69 2 4 10 8 18 8 8 0 33 9 54 20 22 11 40 17 40 13 0 -5 4 -3 8 3 4 6 40
28 80 49 39 20 72 42 72 48 0 6 3 8 6 4 3 -3 11 -2 18 3 6 5 51 39 100 76 79
59 236 207 291 274 43 53 71 89 85 110 8 12 20 28 25 34 10 10 68 99 90 137
105 181 203 432 231 596 2 12 6 35 9 51 21 104 25 442 5 442 -3 0 -6 18 -6 40
-2 42 -35 161 -61 220 -67 153 -127 237 -247 345 -88 80 -277 165 -402 181
-72 9 -229 11 -251 3z"/>
</g>
</svg>
